#N canvas 0 22 274 271 10;
#X obj 53 35 sel 1;
#X obj 55 65 f;
#X obj 54 89 + 1;
#X obj 55 142 t f b;
#X obj 52 8 inlet;
#X obj 82 173 float \$1;
#X obj 54 214 outlet;
#X obj 119 217 outlet;
#X obj 55 115 mod 10;
#X connect 0 0 1 0;
#X connect 1 0 2 0;
#X connect 2 0 8 0;
#X connect 3 0 6 0;
#X connect 3 1 5 0;
#X connect 4 0 0 0;
#X connect 5 0 7 0;
#X connect 8 0 1 1;
#X connect 8 0 3 0;
