#N canvas 172 111 1510 522 10;
#X obj 337 235 noteout;
#X text 34 83 turn on/off the music;
#X msg 71 106 36;
#X text 193 84 speed up tempo;
#X text 318 80 slow down tempo;
#X text 435 83 increase loudness;
#X text 685 52 decrease loudness;
#X obj 219 33 moses 0.1;
#X obj 337 31 moses 0.2;
#X obj 277 1 r th1;
#X obj 389 4 r th2;
#X obj 491 2 r th3;
#X obj 75 4 inlet;
#X obj 918 332 noteout;
#X text 740 87 turn on/off the music;
#X msg 791 110 36;
#X text 904 87 speed up tempo;
#X text 1024 86 slow down tempo;
#X text 1141 89 increase loudness;
#X obj 925 39 moses 0.1;
#X obj 1043 37 moses 0.2;
#X obj 1140 35 moses 0.2;
#X obj 982 10 r th1;
#X obj 1092 7 r th2;
#X obj 1191 7 r th3;
#X obj 438 31 moses 0.3;
#X obj 619 2 r th4;
#X obj 220 1 r Jleft;
#X obj 926 7 r JRight;
#X obj 222 64 bng 15 250 50 0 empty empty empty 17 7 0 10 -262144 -1
-1;
#X obj 341 65 bng 15 250 50 0 empty empty empty 17 7 0 10 -262144 -1
-1;
#X obj 440 59 bng 15 250 50 0 empty empty empty 17 7 0 10 -262144 -1
-1;
#X obj 577 65 bng 15 250 50 0 empty empty empty 17 7 0 10 -262144 -1
-1;
#X obj 926 68 bng 15 250 50 0 empty empty empty 17 7 0 10 -262144 -1
-1;
#X obj 1046 66 bng 15 250 50 0 empty empty empty 17 7 0 10 -262144
-1 -1;
#X obj 1141 64 bng 15 250 50 0 empty empty empty 17 7 0 10 -262144
-1 -1;
#X obj 570 36 moses 0.5;
#X obj 1295 9 r th4;
#X obj 1252 63 bng 15 250 50 0 empty empty empty 17 7 0 10 -262144
-1 -1;
#X obj 1245 34 moses 0.5;
#X obj 118 313 osc~;
#X obj 134 217 mtof;
#X obj 663 223 mtof;
#X obj 136 358 *~;
#X obj 666 346 *~;
#X obj 375 457 dac~ 1 2;
#X obj 380 372 pan~ -45;
#X obj 446 372 pan~ 45;
#X obj 380 409 rev3~ 90 90 3000 15;
#X msg 221 104 45;
#X msg 345 107 47;
#X msg 439 103 48;
#X msg 574 97 50;
#X msg 929 110 52;
#X msg 1254 107 57;
#X msg 1048 111 53;
#X msg 1145 108 55;
#X obj 139 239 speedlim 1000;
#X obj 664 250 speedlim 1000;
#X msg 178 296 1 100;
#X obj 179 329 line~;
#X obj 232 287 delay 900;
#X msg 231 310 0 100;
#X msg 705 306 1 100;
#X obj 780 293 delay 900;
#X msg 779 316 0 100;
#X obj 713 332 line~;
#X obj 666 282 t f b b;
#X obj 137 269 t f b b;
#X obj 77 312 osc~;
#X obj 79 336 +~;
#X obj 610 319 osc~;
#X obj 550 306 osc~;
#X obj 552 330 +~;
#X obj 553 284 * 1;
#X obj 77 290 * 1;
#X obj 568 257 * 1.5;
#X obj 95 255 * 1.5;
#X connect 2 0 0 0;
#X connect 2 0 41 0;
#X connect 7 0 29 0;
#X connect 7 1 8 0;
#X connect 8 0 30 0;
#X connect 8 1 25 0;
#X connect 9 0 7 1;
#X connect 10 0 8 1;
#X connect 11 0 25 1;
#X connect 12 0 2 0;
#X connect 12 0 15 0;
#X connect 15 0 13 0;
#X connect 19 0 33 0;
#X connect 19 1 20 0;
#X connect 20 0 34 0;
#X connect 20 1 21 0;
#X connect 21 0 35 0;
#X connect 21 1 39 0;
#X connect 22 0 19 1;
#X connect 23 0 20 1;
#X connect 24 0 21 1;
#X connect 25 0 31 0;
#X connect 25 1 36 0;
#X connect 26 0 36 1;
#X connect 27 0 7 0;
#X connect 27 0 77 0;
#X connect 28 0 19 0;
#X connect 28 0 76 0;
#X connect 29 0 49 0;
#X connect 30 0 50 0;
#X connect 31 0 51 0;
#X connect 32 0 52 0;
#X connect 33 0 53 0;
#X connect 34 0 55 0;
#X connect 35 0 56 0;
#X connect 36 0 32 0;
#X connect 37 0 39 1;
#X connect 38 0 54 0;
#X connect 39 0 38 0;
#X connect 40 0 70 1;
#X connect 41 0 57 0;
#X connect 42 0 58 0;
#X connect 43 0 46 0;
#X connect 44 0 47 0;
#X connect 46 0 48 0;
#X connect 47 1 48 1;
#X connect 48 0 45 0;
#X connect 48 1 45 1;
#X connect 49 0 0 0;
#X connect 49 0 41 0;
#X connect 50 0 0 0;
#X connect 50 0 41 0;
#X connect 51 0 0 0;
#X connect 51 0 41 0;
#X connect 52 0 0 0;
#X connect 52 0 41 0;
#X connect 53 0 13 0;
#X connect 53 0 42 0;
#X connect 54 0 13 0;
#X connect 54 0 42 0;
#X connect 55 0 13 0;
#X connect 55 0 42 0;
#X connect 56 0 13 0;
#X connect 56 0 42 0;
#X connect 57 0 68 0;
#X connect 58 0 67 0;
#X connect 59 0 60 0;
#X connect 60 0 43 1;
#X connect 61 0 62 0;
#X connect 62 0 60 0;
#X connect 63 0 66 0;
#X connect 64 0 65 0;
#X connect 65 0 66 1;
#X connect 66 0 44 1;
#X connect 67 0 71 0;
#X connect 67 0 74 0;
#X connect 67 1 63 0;
#X connect 67 2 64 0;
#X connect 68 0 40 0;
#X connect 68 0 75 0;
#X connect 68 1 59 0;
#X connect 68 2 61 0;
#X connect 69 0 70 0;
#X connect 70 0 43 0;
#X connect 71 0 73 1;
#X connect 72 0 73 0;
#X connect 73 0 44 0;
#X connect 74 0 72 0;
#X connect 75 0 69 0;
#X connect 76 0 74 1;
#X connect 77 0 75 1;
